<svg width="140" height="187" viewBox="0 0 140 187" fill="none" xmlns="http://www.w3.org/2000/svg">
<path d="M74.1205 0.5C74.1205 1.90501 74.1205 7.68682 73.9798 15.7017C73.8774 21.5326 73.1269 24.764 72.9136 29.8284C72.7183 34.4678 72.8411 43.3229 72.7708 48.234C72.6698 55.2822 71.8517 58.1052 71.4914 61.5135C71.4156 62.2303 71.2803 62.6524 71.2078 67.3655C71.1353 72.0787 71.1353 81.0707 71.2056 85.9137C71.2822 91.1819 71.7025 92.034 71.9157 93.0942C72.0424 93.7243 71.9882 94.5758 70.9327 95.0101C67.9775 96.2259 65.4504 95.8659 65.0964 96.7152C64.323 98.5711 63.1773 100.4 62.962 103.31C62.8817 104.394 62.6059 107.762 59.9319 112.232C52.6467 124.412 43.8498 114.885 41.8581 115.24C39.7999 115.607 37.8792 117.294 35.6061 118.855C32.9269 120.694 31.4779 121.271 30.9085 121.907C30.6519 122.194 30.9021 122.684 31.3265 122.972C33.3814 124.364 36.2927 124.387 38.2907 125.245C40.1603 126.048 44.3786 126.951 48.3789 127.728C50.9424 128.226 53.215 128.509 54.9934 129.147C55.504 129.331 56.0553 129.641 56.486 129.997C56.9168 130.352 57.1982 130.774 57.0618 131.132C56.7243 132.016 55.3602 132.341 50.4984 132.766C46.0735 133.154 37.6148 132.911 32.9129 132.981C26.3422 133.08 24.3772 134.044 19.1998 136.166C14.5023 138.092 12.7175 138.727 9.73647 140.143C6.68489 141.592 3.91517 143.683 1.27319 144.971C0.75579 145.223 0.349885 145.675 0.55459 146.103C2.3057 149.764 9.42515 148.52 13.5448 148.735C17.5817 148.945 20.0869 149.942 26.4733 151.496C30.1167 152.382 33.7254 153.203 36.9367 153.771C39.2886 154.188 40.8517 154.48 41.4914 155.257C42.9993 157.089 42.4168 159.3 42.4211 165.669C42.4232 168.83 40.5745 170.369 40.2887 172.428C40.2173 172.943 39.8665 173.35 40.003 173.778C40.7931 176.255 45.3936 175.623 47.3873 176.337C49.7279 177.174 52.635 177.752 55.9849 178.182C58.285 178.477 60.465 179.174 63.5867 180.096C64.5657 180.385 65.7106 180.451 69.8089 180.524C73.9073 180.596 80.9441 180.596 85.2727 180.245C93.3342 179.591 95.9984 177.624 98.3504 176.767C100.849 175.855 104.391 176.058 106.807 175.489C107.383 175.354 107.803 175.206 107.88 174.923C108.343 173.213 107.104 170.957 106.888 164.373C106.723 159.32 106.251 154.208 106.315 152.36C106.44 148.745 120.375 153.348 126.214 152.217C128.535 151.768 130.124 149.95 132.182 148.315C134.305 146.629 135.669 145.267 137.232 144.055C137.96 143.491 138.94 143.415 139.439 142.991C139.662 142.801 139.234 142.286 138.878 141.999C137.345 140.762 135.114 140.294 130.931 139.089C127.01 137.96 119.531 138.446 114.151 138.093C109.527 137.789 107.82 137.314 105.404 137.099C103.221 136.904 100.434 136.036 97.4484 135.538C92.5188 134.716 89.917 134.333 87.5629 133.765C86.0942 133.41 84.7865 133.056 84.1468 131.998C83.7292 131.307 83.9293 129.956 84.2108 129.235C84.6491 128.111 92.5312 128.228 103.191 128.158C108.433 128.123 109.94 126.384 110.65 125.961C112.193 125.04 111.786 122.276 112.43 120.5C112.602 120.027 112.503 119.44 112.292 119.01C111.415 117.225 107.547 117.584 104.551 117.16C101.822 116.774 97.3119 116.307 94.9536 115.953C92.763 115.625 90.4799 115.455 88.6333 115.244C87.8871 115.159 87.6311 114.612 87.4157 114.184C84.9325 109.251 86.6331 99.2847 85.9934 97.5795C85.3381 95.8326 83.0849 95.5891 80.814 95.091C76.3584 94.1136 74.5555 94.3118 71.4316 94.3076C69.2002 94.3045 67.732 96.9941 66.5187 98.844C65.2756 100.74 64.6017 103.806 63.8874 105.656C63.1554 107.552 61.6165 109.486 60.8318 111.191C60.4209 112.084 60.0471 113.177 60.2582 114.312C60.4142 115.151 61.7487 115.17 65.5549 115.383C75.2571 115.925 82.5007 115.315 86.0297 115.102C99.5364 114.287 102.677 115.881 106.236 116.304C108.433 116.566 109.94 117.299 110.65 117.722C111.359 118.145 111.223 119.985 110.731 122.039C109.765 126.066 105.261 125.388 99.4784 125.601C94.5427 125.783 85.5329 125.673 80.6818 125.744C74.111 125.839 71.0073 126.806 68.231 127.374C65.7283 127.887 63.4673 128.509 61.7593 129.077C59.7962 129.731 57.2153 129.931 55.0083 131.061C53.1846 131.995 49.9739 132.622 47.6155 132.134C45.4988 131.697 37.0945 131.208 31.4118 131.915C28.7645 132.244 25.6651 132.911 22.8824 133.335C20.0828 133.761 17.8351 134.469 16.1271 135.461C13.812 136.806 11.0116 138.863 9.30361 140.145C7.56789 141.447 5.46752 142.976 4.32458 145.177C3.95926 145.881 4.17958 147.08 4.46105 147.8C5.50108 150.459 11.2675 149.652 14.3338 150.012C16.971 150.321 19.5239 150.648 23.9208 150.934C27.7157 151.18 30.7486 152.07 33.3821 152.564C38.5264 153.529 45.1036 152.786 48.3085 152.072C50.6664 151.548 56.3112 151.219 61.7956 150.865C74.5212 150.046 76.8073 149.942 80.4238 149.588C90.2753 148.626 94.2755 149.942 97.6382 150.648C100.093 151.164 101.833 151.5 103.611 151.998C104.096 152.134 104.673 152.07 105.104 152.281C108.582 153.983 106.387 162.28 106.603 165.399C106.79 168.113 107.24 171.502 107.174 174.484C107.163 174.969 106.541 174.78 106.112 174.567C104.24 173.637 102.703 172.226 98.1798 171.374C94.9895 170.774 88.8849 171.23 85.486 171.159C82.087 171.089 81.5241 170.949 74.6899 170.876C67.8557 170.804 54.7674 170.804 47.9545 171.015C41.1417 171.225 41.0009 171.647 40.9284 172.145C40.8559 172.643 40.8559 173.205 41.067 173.635C41.995 175.525 45.3936 175.061 47.3873 175.485C50.3578 176.116 53.215 176.62 55.0638 177.682C57.6829 179.187 60.6015 179.881 64.0154 181.654C66.0253 182.698 69.1223 184.701 73.5299 185.986C78.1351 187.33 81.5113 185.71 82.006 184.86C82.6347 183.781 83.7843 183.155 84.2812 182.235C84.8129 181.251 84.7823 179.051 84.6415 176.498C84.5081 174.078 81.5241 173.222 79.671 172.439C76.8382 171.241 72.1417 171.374 67.7406 171.37C66.7243 171.369 66.1712 171.792 65.7404 172.217C65.0282 173.205 64.316 174.487 63.6763 176.324C63.4588 177.458 63.4588 179.004 63.4588 180.596" stroke="#0C0C0C" stroke-opacity="0.5" stroke-linecap="round"/>
</svg>
