<svg width="335" height="409" viewBox="0 0 335 409" fill="none" xmlns="http://www.w3.org/2000/svg">
<path d="M163.018 151.402C164.086 156.204 164.624 168.441 161.428 175.214C160.454 177.279 157.14 176.559 155.534 178.815C152.213 183.481 153.928 189.133 152.057 190.735C150.47 192.094 149.375 193.421 147.774 193.955C141.907 195.91 132.521 195.292 129.041 196.364C124.567 197.742 121.28 199.034 117.398 200.511C113.531 201.983 110.039 204.654 106.823 205.999C103.695 207.307 100.403 208.139 97.1872 209.878C94.0754 211.56 90.7675 213.487 87.1542 215.763C82.1312 218.928 78.7231 220.184 74.8408 222.055C71.3789 223.723 68.2847 225.001 63.6034 227.137C57.802 229.784 53.3015 234.364 49.8126 236.64C46.2337 238.975 41.8031 243.71 38.3063 248.54C32.5089 256.547 29.7427 260.315 27.1933 264.202C23.7895 269.391 20.6372 273.693 18.4933 278.121C16.7593 281.703 14.2135 284.677 11.4031 290.025C9.03104 294.539 7.51683 299.387 4.44552 307.148C2.77195 311.377 2.42608 333.738 4.15645 346.774C4.52611 349.559 6.97082 351.331 8.83368 352.535C14.9287 356.476 23.5278 353.748 28.9076 355.213C33.2059 356.384 38.5271 357.489 43.3609 359.228C47.5529 360.735 51.3905 362.034 55.1363 363.512C61.4004 365.982 67.4336 367.125 76.8001 367.53C85.1019 367.89 95.2962 369.791 103.964 376.873C108.16 380.301 111.612 382.108 114.828 384.252C118.605 386.77 122.308 393.333 128.201 396.164C132.455 398.206 137.034 398.97 141.719 400.845C148.74 403.655 153.093 406.197 159.914 406.875C171.723 408.05 192.695 406.486 198.862 404.342C203.397 402.765 207.951 400.062 211.986 398.051C215.284 396.407 219.739 395.245 223.36 392.434C227.207 389.449 231.783 386.685 235.007 384.136C237.643 382.051 237.95 377.852 239.162 374.372C239.518 373.351 239.299 371.975 239.696 371.16C240.401 369.714 252.837 369.807 270.096 369.542C279.045 369.404 282.642 366.868 285.858 365.796C289.396 364.617 293.611 363.383 303.363 359.918C309.334 357.797 314.215 354.31 318.643 351.479C321.646 349.56 324.669 349.733 326.54 349.335C330.363 348.523 331.623 341.992 332.976 338.503C334.174 335.414 331.109 332.084 330.306 304.213C329.963 292.295 325.488 288.997 323.352 285.641C322.789 284.756 321.489 284.436 320.811 283.501C317.211 278.537 314.825 268.409 311.569 263.828C309.605 261.065 309.429 256.879 308.357 253.125C307.053 248.559 304.354 245.364 301.937 240.816C300.049 237.262 296.325 235.986 291.776 234.914C287.161 233.826 279.222 230.911 273.308 229.161C267.864 227.549 261.268 222.352 258.71 218.863C256.121 215.331 251.632 211.897 247.477 210.693C243.724 209.605 240.921 207.079 230.643 203.876C224.022 201.812 219.787 201.186 214.427 200.519C209.618 199.921 205.864 199.05 202.242 197.978C197.818 196.668 193.016 195.565 188.6 194.633C180.675 192.962 177.487 191.823 174.669 188.888C171.511 185.6 175.062 181.658 174.665 179.787C173.856 175.98 171.047 158.789 169.048 151.796C167.862 147.647 165.7 160.219 163.961 163.435C162.327 166.457 162.215 170.384 162.745 173.728C163.375 177.704 172.075 176.294 176.656 177.093C177.494 177.239 178.258 177.627 178.667 178.293C179.077 178.96 179.077 180.02 178.679 181.096C176.904 185.903 173.729 189.125 171.726 192.209C167.485 198.735 151.792 194.489 144.578 194.894C140.442 195.127 136.809 196.368 131.726 197.432C123.505 199.153 115.177 200.383 101.367 202.113C95.6921 202.824 88.9207 208.123 83.0069 210.279C79.0216 211.732 75.7843 215.88 71.2275 220.975C68.3443 224.198 65.3459 229 61.9895 231.822C58.9318 234.394 55.7104 237.576 50.8886 241.719C47.2042 244.885 42.863 250.134 39.7757 254.434C36.1788 259.443 30.3048 264.844 25.0574 272.757C21.138 278.668 16.6224 285.48 15.1449 288.696C13.5199 292.233 11.2747 296.449 8.99026 300.604C6.98977 304.243 5.38096 310.356 3.77103 315.053C1.42151 321.908 0.290208 326.158 1.47457 336.58C2.41559 344.861 12.8485 337.159 17.2607 335.155C23.4292 332.354 26.4988 329.402 30.1121 327.925C36.5312 325.3 44.1478 324.038 48.9816 323.107C53.7683 322.184 57.8141 320.296 65.2897 318.293C70.3842 316.928 79.9758 316.009 90.8117 315.876C95.5694 315.818 108.826 315.206 128.093 315.073C138.661 315.001 144.534 313.873 152.924 312.933C166.243 311.442 175.857 312.532 181.036 312.13C202.823 310.441 207.164 310.661 219.843 310.653C226.696 310.649 233.903 314.13 238.484 315.202C243.483 316.372 251.054 317.069 256.542 318.413C260.462 319.374 270.534 320.023 277.957 320.955C283.509 321.651 296.469 324.038 304.591 324.837C310.482 325.417 317.153 329.916 321.855 331.261C323.603 331.761 325.207 332.333 326.809 332.999C333.224 335.668 328.7 350.528 327.235 351.997C322.695 356.549 314.263 356.413 307.976 358.292C303.41 359.657 299.537 360.701 295.654 361.773C291.079 363.036 285.083 363.64 281.201 364.319C277.063 365.042 272.236 366.049 264.504 367.261C248.336 369.796 244.935 366.065 238.917 365.262C237.831 365.117 238.223 363.672 238.889 362.596C241.645 358.147 244.373 355.37 246.385 352.154C249.674 346.895 246.798 336.902 244.795 333.553C242.409 329.565 240.118 326.993 236.902 324.183C233.492 321.203 227.816 318.964 223.79 317.619C219.349 316.136 216.029 315.479 212.548 314.407C210.201 313.684 196.067 313.6 175.869 313.335C166.502 313.212 163.829 311.729 157.987 311.327C143.699 310.345 133.051 311.456 129.193 311.857C114.122 313.426 106.024 315.463 102.141 317.739C98.4508 319.903 94.2524 321.083 90.2295 326.026C87.5681 329.295 87.0097 333.385 86.0702 340.194C84.2187 353.613 87.7966 356.943 89.1415 361.492C90.2714 365.313 93.6742 369.518 97.1631 371.541C101.531 374.074 105.462 379.426 109.071 383.176C112.048 386.269 117.747 390.122 122.187 392.153C125.74 393.779 130.867 393.093 137.162 394.426C146.554 396.414 152.563 398.44 160.697 400.046C175.57 402.983 183.3 397.926 190.166 395.642C195.385 393.905 202.33 391.76 207.028 389.889C213.849 387.172 218.406 386.942 222.288 385.204C225.769 383.645 229.647 382.397 234.196 379.587C237.742 377.396 240.889 374.641 243.972 370.758C246.471 367.611 246.252 362.869 247.192 358.585C248.749 351.485 248.934 343.373 246.802 337.034C245.651 333.61 243.859 330.478 241.318 327.13C237.652 322.299 233.164 319.766 230.342 316.956C227.575 314.201 213.186 314.403 204.916 317.065C200.173 318.591 201.833 324.825 200.628 328.173C199.148 332.289 195.955 335.264 191.94 337.945C187.61 340.838 182.321 341.43 174.954 341.836C164.161 342.43 146.975 341.446 143.759 339.969C139.171 337.861 134.4 331.554 131.044 329.398C129.839 328.069 128.763 326.455 127.961 323.396C127.688 321.131 127.688 317.422 128.49 312.797" stroke="#0C0C0C" stroke-width="2" stroke-linecap="round"/>
<path d="M165.561 154.624C167.664 138.161 171.036 133.104 174.42 126.976C177.442 121.503 177.804 115.36 178.026 95.5566C178.118 87.3311 175.7 63.1679 174.648 45.8677C174.014 38.466 173.165 25.0187 173.583 10.4498C174.002 5.08233 174.838 3.82759 176.967 0" stroke="#0C0C0C" stroke-width="2" stroke-linecap="round"/>
</svg>
