<svg width="332" height="440" viewBox="0 0 332 440" fill="none" xmlns="http://www.w3.org/2000/svg">
<path d="M327.4 2.15652C317.341 5.74312 309.462 8.59732 300.806 10.9453C294.342 12.6986 289.646 15.7921 284.427 19.1956C278.435 23.1034 271.664 30.1385 267.87 34.8075C263.336 40.3877 260.504 46.639 258.151 52.579C255.406 59.5091 249.711 67.1246 247.18 72.3214C243.173 80.5489 238.551 88.2996 236.565 94.5788C234.74 100.347 232.787 105.166 231.524 111.629C229.791 120.499 229.182 127.052 227.212 135.502C225.047 144.79 220.914 156.844 217.682 167.092C215.916 172.69 213.726 177.695 209.77 180.937C205.524 184.418 195.788 188.1 186.576 191.708C181.17 193.825 174.892 194.95 150.947 195.844C132.411 196.536 97.1377 196.027 78.4385 196.382C53.1369 196.863 41.7685 202.834 34.7529 207.314C25.9422 212.942 19.8366 220.756 15.1308 226.346C10.5884 231.742 7.94251 236.223 4.87183 240.348C1.20187 245.278 1.81195 252.012 1.2669 269.735C1.11553 274.657 0.365661 292.079 2.32463 320.228C4.39455 349.971 16.1669 356.832 21.2128 364.554C27.2475 373.79 30.2197 378.028 38.8273 391.281C43.0509 397.784 46.0426 404.588 48.7463 410.162C51.0338 414.878 53.5979 422.166 56.6577 431.865C57.4645 434.422 58.6275 436.879 59.7122 437.983C62.996 441.325 70.1331 435.5 75.0008 433.884C77.8141 432.951 97.6774 431.903 126.808 431.547C139.599 431.391 153.155 429.748 170.958 429.571C181.036 429.47 203.084 427.594 219.776 426.7C242.453 425.486 248.221 424.729 253.98 423.114C264.549 420.148 271.254 419.71 276.651 417.012C279.341 415.667 282.058 415.391 284.211 414.32C289.004 411.934 289.257 406.075 290.52 401.05C290.959 399.302 290.703 396.769 290.169 395.31C288.337 390.305 278.507 388.842 273.451 386.494C268.384 384.141 263.03 380.57 253.148 376.273C243.895 372.248 237.838 370.166 233.516 368.184C227.601 365.472 220.569 361.549 215.712 359.212C208.196 355.595 204.379 351.856 200.057 349.158C196.141 346.714 191.427 345.393 187.105 343.412C182.637 341.363 178.475 338.931 174.153 336.055C169.659 333.066 164.811 328.527 156.538 320.815C151.916 316.506 146.463 313.448 139.981 308.24C135.104 304.321 130.273 299.101 125.583 293.161C121.868 288.456 113.759 280.102 108.309 273.591C104.978 269.613 103.268 264.269 103.257 239.922C103.254 231.307 106.495 228.349 107.569 226.378C109.916 222.072 117.623 222.609 124.105 219.911C134.09 215.754 151.449 219.356 157.742 220.794C160.8 221.493 172.949 221.876 189.673 222.054C196.8 222.13 213.197 222.953 237.115 222.776C249.741 222.682 253.985 219.378 259.203 217.396C264.112 215.532 267.304 210.416 270.007 205.737C272.382 201.626 274.147 195.704 277.379 188.692C279.835 183.365 280.623 178.816 281.885 174.324C283.687 167.915 284.573 156.951 285.485 148.125C285.768 145.389 286.742 142.551 287.282 129.195C287.75 117.625 287.466 96.2914 287.644 84.7722C287.878 69.6163 291.761 64.6474 295.906 59.4398C299.425 55.0186 302.921 50.6457 305.803 46.332C309.2 41.2477 314.794 36.6439 317.498 32.3303C320.103 28.173 322.716 23.0084 327.74 16.5406C331.107 12.2071 330.995 7.19715 331 4.6876C331.005 2.39823 327.411 1.80109 324.368 1.26256C315.659 -0.278325 310.52 5.36615 304.934 7.71413C299.81 9.86843 295.042 12.5609 290.898 15.2482C286.621 18.0214 283.17 21.8882 273.828 31.1994C269.214 35.7983 267.325 40.9091 264.811 45.4004C261.813 50.7544 258.691 54.9108 252.593 64.7659C248.601 71.216 244.681 77.8737 241.961 84.7076C239.908 89.8668 238.184 96.1837 236.921 102.479C235.601 109.059 234.579 118.414 233.505 125.997C232.141 135.623 231.708 148.615 230.985 159.186C230.575 165.168 227.39 169.79 224.519 175.541C220.881 182.829 214.806 187.389 212.82 191.88C210.377 197.405 205.459 200.68 201.136 202.484C191.183 206.638 168.092 204.988 149.981 206.614C137.725 207.715 114.169 206.798 101.169 206.975C83.4413 207.218 79.1778 210.373 74.4989 212C68.6922 214.018 63.3549 214.682 57.7694 215.769C52.8654 216.725 48.2444 220.778 43.7328 224.197C39.6313 227.306 37.0842 232.625 34.5532 237.117C31.4436 242.635 26.658 250.181 23.2203 256.504C20.5559 261.404 19.0811 266.725 16.7444 272.476C14.3276 278.425 13.3175 295.698 14.3915 306.048C14.9769 311.691 17.6132 316.636 19.7881 320.949C23.1112 327.541 27.6941 337.1 29.8582 342.485C32.6157 349.348 35.6163 356.832 37.4134 363.305C39.8235 371.986 45.3087 380.872 48.0286 386.65C50.6671 392.256 51.8062 399.569 53.6033 404.238C56.1506 410.857 60.0738 415.359 63.6733 420.039C66.9059 425.063 70.5216 430.093 71.0559 432.603C71.5902 433.691 72.6587 434.401 75.9183 436.211" stroke="#0C0C0C" stroke-width="2" stroke-linecap="round"/>
</svg>
