<svg width="150" height="150" viewBox="0 0 150 150" fill="none" xmlns="http://www.w3.org/2000/svg">
<circle cx="75" cy="75" r="75" fill="#FAFAFA" fill-opacity="0.2"/>
<circle cx="75" cy="75" r="74.5" stroke="#0C0C0C" stroke-opacity="0.1"/>
<path d="M57.6 78.04C59.508 75.688 60.462 73.618 60.462 71.83C60.462 71.038 60.24 70.42 59.796 69.976C59.364 69.532 58.734 69.31 57.906 69.31C57.414 69.31 56.868 69.43 56.268 69.67C55.668 69.91 55.122 70.264 54.63 70.732L55.584 68.986C56.28 68.422 57.204 68.14 58.356 68.14C59.448 68.14 60.318 68.422 60.966 68.986C61.614 69.538 61.938 70.36 61.938 71.452C61.938 72.484 61.686 73.552 61.182 74.656C60.678 75.76 59.826 77.008 58.626 78.4L56.214 81.19C56.526 81.058 56.844 80.956 57.168 80.884C57.504 80.812 57.804 80.776 58.068 80.776H61.416C61.932 80.776 62.448 80.656 62.964 80.416L62.1 82H57.528C56.868 82 56.268 82.018 55.728 82.054C55.2 82.102 54.66 82.192 54.108 82.324L57.6 78.04ZM65.3873 82.216C65.2313 82.288 65.0993 82.228 64.9913 82.036C64.8953 81.856 64.8473 81.586 64.8473 81.226V69.652C64.8473 69.484 64.7933 69.358 64.6853 69.274C64.5773 69.178 64.3733 69.076 64.0733 68.968L65.7833 68.176C65.9393 68.104 66.0653 68.164 66.1613 68.356C66.2693 68.536 66.3233 68.806 66.3233 69.166V75.196L70.9673 70.822C71.1593 70.642 71.3093 70.462 71.4173 70.282C71.5253 70.102 71.5793 69.946 71.5793 69.814C71.5793 69.514 71.3453 69.364 70.8773 69.364C70.3013 69.364 69.9293 69.394 69.7613 69.454L70.8593 68.32C71.1353 68.272 71.3813 68.248 71.5973 68.248C72.0533 68.248 72.4073 68.356 72.6593 68.572C72.9233 68.776 73.0553 69.052 73.0553 69.4C73.0553 69.652 72.9773 69.922 72.8213 70.21C72.6773 70.498 72.4553 70.774 72.1553 71.038L68.8613 74.008C69.5933 74.188 70.1573 74.506 70.5533 74.962C70.9613 75.406 71.3333 76.084 71.6693 76.996L72.7673 80.056C72.8873 80.404 73.0013 80.638 73.1093 80.758C73.2293 80.878 73.4513 80.944 73.7753 80.956C73.9193 80.956 74.1053 80.932 74.3333 80.884L73.4153 82.09C73.2353 82.126 73.0193 82.144 72.7673 82.144C72.3953 82.144 72.1133 82.036 71.9213 81.82C71.7413 81.604 71.5613 81.238 71.3813 80.722L70.3373 77.806C70.1213 77.182 69.9173 76.696 69.7253 76.348C69.5333 75.988 69.2873 75.694 68.9873 75.466C68.6993 75.226 68.3153 75.046 67.8353 74.926L66.3233 76.294V80.74C66.3233 80.908 66.3773 81.04 66.4853 81.136C66.5933 81.22 66.7973 81.316 67.0973 81.424L65.3873 82.216ZM75.9524 81.19C76.0724 81.022 76.1324 80.818 76.1324 80.578V69.472H74.8904L75.5744 68.392H83.6204L82.9544 69.472H77.6084V74.188H82.5224L81.8564 75.232H77.6084V79.786C77.6084 80.014 77.5364 80.212 77.3924 80.38L76.8344 80.956C76.9544 80.932 77.1164 80.92 77.3204 80.92H83.9264L83.2424 82H76.4744C76.0184 82 75.5804 82.048 75.1604 82.144L75.9524 81.19ZM86.3194 82.252C85.9114 82.252 85.6114 82.18 85.4194 82.036C85.2274 81.892 85.1314 81.646 85.1314 81.298C85.1314 80.89 85.2754 80.284 85.5634 79.48L89.1274 69.364H87.5074L88.1374 68.392H91.1434C91.2034 68.884 91.2934 69.34 91.4134 69.76L94.5994 80.092C94.7074 80.44 94.8274 80.692 94.9594 80.848C95.0914 81.004 95.2534 81.082 95.4454 81.082C95.7454 81.082 95.9494 81.058 96.0574 81.01L95.1754 82.144C94.9834 82.216 94.7914 82.252 94.5994 82.252C93.9994 82.252 93.5674 81.832 93.3034 80.992L92.1694 77.248H87.4894L86.8594 79.084C86.7394 79.444 86.6374 79.762 86.5534 80.038C86.4814 80.314 86.4454 80.524 86.4454 80.668C86.4454 80.836 86.4934 80.95 86.5894 81.01C86.6974 81.058 86.8774 81.082 87.1294 81.082C87.3454 81.082 87.5854 81.046 87.8494 80.974L87.0934 82.144C86.8534 82.216 86.5954 82.252 86.3194 82.252ZM91.8994 76.276L89.9914 69.94L87.8314 76.276H91.8994Z" fill="black"/>
</svg>
