<svg width="58" height="57" viewBox="0 0 58 57" fill="none" xmlns="http://www.w3.org/2000/svg">
<path d="M1.98379 0H0V1.9473H1.98379V0Z" fill="#1B1918"/>
<path d="M3.96758 0H1.98379V1.9473H3.96758V0Z" fill="#1B1918"/>
<path d="M5.95137 0H3.96758V1.9473H5.95137V0Z" fill="#1B1918"/>
<path d="M7.93516 0H5.95137V1.9473H7.93516V0Z" fill="#1B1918"/>
<path d="M9.91895 0H7.93516V1.9473H9.91895V0Z" fill="#1B1918"/>
<path d="M11.9027 0H9.91895V1.9473H11.9027V0Z" fill="#1B1918"/>
<path d="M13.8865 0H11.9027V1.9473H13.8865V0Z" fill="#1B1918"/>
<path d="M19.8379 0H17.8541V1.9473H19.8379V0Z" fill="#1B1918"/>
<path d="M27.7731 0H25.7893V1.9473H27.7731V0Z" fill="#1B1918"/>
<path d="M37.692 0H35.7082V1.9473H37.692V0Z" fill="#1B1918"/>
<path d="M41.6596 0H39.6758V1.9473H41.6596V0Z" fill="#1B1918"/>
<path d="M45.6272 0H43.6434V1.9473H45.6272V0Z" fill="#1B1918"/>
<path d="M47.611 0H45.6272V1.9473H47.611V0Z" fill="#1B1918"/>
<path d="M49.5947 0H47.611V1.9473H49.5947V0Z" fill="#1B1918"/>
<path d="M51.5785 0H49.5947V1.9473H51.5785V0Z" fill="#1B1918"/>
<path d="M53.5623 0H51.5785V1.9473H53.5623V0Z" fill="#1B1918"/>
<path d="M55.5461 0H53.5623V1.9473H55.5461V0Z" fill="#1B1918"/>
<path d="M57.5299 0H55.5461V1.9473H57.5299V0Z" fill="#1B1918"/>
<path d="M1.98379 1.9473H0V3.8946H1.98379V1.9473Z" fill="#1B1918"/>
<path d="M13.8865 1.9473H11.9027V3.8946H13.8865V1.9473Z" fill="#1B1918"/>
<path d="M17.8541 1.9473H15.8703V3.8946H17.8541V1.9473Z" fill="#1B1918"/>
<path d="M25.7893 1.9473H23.8055V3.8946H25.7893V1.9473Z" fill="#1B1918"/>
<path d="M31.7406 1.9473H29.7568V3.8946H31.7406V1.9473Z" fill="#1B1918"/>
<path d="M37.692 1.9473H35.7082V3.8946H37.692V1.9473Z" fill="#1B1918"/>
<path d="M41.6596 1.9473H39.6758V3.8946H41.6596V1.9473Z" fill="#1B1918"/>
<path d="M45.6272 1.9473H43.6434V3.8946H45.6272V1.9473Z" fill="#1B1918"/>
<path d="M57.5299 1.9473H55.5461V3.8946H57.5299V1.9473Z" fill="#1B1918"/>
<path d="M1.98379 3.8946H0V5.84189H1.98379V3.8946Z" fill="#1B1918"/>
<path d="M5.95137 3.8946H3.96758V5.84189H5.95137V3.8946Z" fill="#1B1918"/>
<path d="M7.93516 3.8946H5.95137V5.84189H7.93516V3.8946Z" fill="#1B1918"/>
<path d="M9.91895 3.8946H7.93516V5.84189H9.91895V3.8946Z" fill="#1B1918"/>
<path d="M13.8865 3.8946H11.9027V5.84189H13.8865V3.8946Z" fill="#1B1918"/>
<path d="M17.8541 3.8946H15.8703V5.84189H17.8541V3.8946Z" fill="#1B1918"/>
<path d="M23.8055 3.8946H21.8217V5.84189H23.8055V3.8946Z" fill="#1B1918"/>
<path d="M27.7731 3.8946H25.7893V5.84189H27.7731V3.8946Z" fill="#1B1918"/>
<path d="M35.7082 3.8946H33.7244V5.84189H35.7082V3.8946Z" fill="#1B1918"/>
<path d="M41.6596 3.8946H39.6758V5.84189H41.6596V3.8946Z" fill="#1B1918"/>
<path d="M45.6272 3.8946H43.6434V5.84189H45.6272V3.8946Z" fill="#1B1918"/>
<path d="M49.5947 3.8946H47.611V5.84189H49.5947V3.8946Z" fill="#1B1918"/>
<path d="M51.5785 3.8946H49.5947V5.84189H51.5785V3.8946Z" fill="#1B1918"/>
<path d="M53.5623 3.8946H51.5785V5.84189H53.5623V3.8946Z" fill="#1B1918"/>
<path d="M57.5299 3.8946H55.5461V5.84189H57.5299V3.8946Z" fill="#1B1918"/>
<path d="M1.98379 5.84189H0V7.78919H1.98379V5.84189Z" fill="#1B1918"/>
<path d="M5.95137 5.84189H3.96758V7.78919H5.95137V5.84189Z" fill="#1B1918"/>
<path d="M7.93516 5.84189H5.95137V7.78919H7.93516V5.84189Z" fill="#1B1918"/>
<path d="M9.91895 5.84189H7.93516V7.78919H9.91895V5.84189Z" fill="#1B1918"/>
<path d="M13.8865 5.84189H11.9027V7.78919H13.8865V5.84189Z" fill="#1B1918"/>
<path d="M19.8379 5.84189H17.8541V7.78919H19.8379V5.84189Z" fill="#1B1918"/>
<path d="M23.8055 5.84189H21.8217V7.78919H23.8055V5.84189Z" fill="#1B1918"/>
<path d="M33.7244 5.84189H31.7406V7.78919H33.7244V5.84189Z" fill="#1B1918"/>
<path d="M39.6758 5.84189H37.692V7.78919H39.6758V5.84189Z" fill="#1B1918"/>
<path d="M41.6596 5.84189H39.6758V7.78919H41.6596V5.84189Z" fill="#1B1918"/>
<path d="M45.6272 5.84189H43.6434V7.78919H45.6272V5.84189Z" fill="#1B1918"/>
<path d="M49.5947 5.84189H47.611V7.78919H49.5947V5.84189Z" fill="#1B1918"/>
<path d="M51.5785 5.84189H49.5947V7.78919H51.5785V5.84189Z" fill="#1B1918"/>
<path d="M53.5623 5.84189H51.5785V7.78919H53.5623V5.84189Z" fill="#1B1918"/>
<path d="M57.5299 5.84189H55.5461V7.78919H57.5299V5.84189Z" fill="#1B1918"/>
<path d="M1.98379 7.78919H0V9.73649H1.98379V7.78919Z" fill="#1B1918"/>
<path d="M5.95137 7.78919H3.96758V9.73649H5.95137V7.78919Z" fill="#1B1918"/>
<path d="M7.93516 7.78919H5.95137V9.73649H7.93516V7.78919Z" fill="#1B1918"/>
<path d="M9.91895 7.78919H7.93516V9.73649H9.91895V7.78919Z" fill="#1B1918"/>
<path d="M13.8865 7.78919H11.9027V9.73649H13.8865V7.78919Z" fill="#1B1918"/>
<path d="M25.7893 7.78919H23.8055V9.73649H25.7893V7.78919Z" fill="#1B1918"/>
<path d="M29.7568 7.78919H27.7731V9.73649H29.7568V7.78919Z" fill="#1B1918"/>
<path d="M31.7406 7.78919H29.7568V9.73649H31.7406V7.78919Z" fill="#1B1918"/>
<path d="M33.7244 7.78919H31.7406V9.73649H33.7244V7.78919Z" fill="#1B1918"/>
<path d="M39.6758 7.78919H37.692V9.73649H39.6758V7.78919Z" fill="#1B1918"/>
<path d="M45.6272 7.78919H43.6434V9.73649H45.6272V7.78919Z" fill="#1B1918"/>
<path d="M49.5947 7.78919H47.611V9.73649H49.5947V7.78919Z" fill="#1B1918"/>
<path d="M51.5785 7.78919H49.5947V9.73649H51.5785V7.78919Z" fill="#1B1918"/>
<path d="M53.5623 7.78919H51.5785V9.73649H53.5623V7.78919Z" fill="#1B1918"/>
<path d="M57.5299 7.78919H55.5461V9.73649H57.5299V7.78919Z" fill="#1B1918"/>
<path d="M1.98379 9.73649H0V11.6838H1.98379V9.73649Z" fill="#1B1918"/>
<path d="M13.8865 9.73649H11.9027V11.6838H13.8865V9.73649Z" fill="#1B1918"/>
<path d="M23.8055 9.73649H21.8217V11.6838H23.8055V9.73649Z" fill="#1B1918"/>
<path d="M25.7893 9.73649H23.8055V11.6838H25.7893V9.73649Z" fill="#1B1918"/>
<path d="M29.7568 9.73649H27.7731V11.6838H29.7568V9.73649Z" fill="#1B1918"/>
<path d="M33.7244 9.73649H31.7406V11.6838H33.7244V9.73649Z" fill="#1B1918"/>
<path d="M35.7082 9.73649H33.7244V11.6838H35.7082V9.73649Z" fill="#1B1918"/>
<path d="M37.692 9.73649H35.7082V11.6838H37.692V9.73649Z" fill="#1B1918"/>
<path d="M41.6596 9.73649H39.6758V11.6838H41.6596V9.73649Z" fill="#1B1918"/>
<path d="M45.6272 9.73649H43.6434V11.6838H45.6272V9.73649Z" fill="#1B1918"/>
<path d="M57.5299 9.73649H55.5461V11.6838H57.5299V9.73649Z" fill="#1B1918"/>
<path d="M1.98379 11.6838H0V13.6311H1.98379V11.6838Z" fill="#1B1918"/>
<path d="M3.96758 11.6838H1.98379V13.6311H3.96758V11.6838Z" fill="#1B1918"/>
<path d="M5.95137 11.6838H3.96758V13.6311H5.95137V11.6838Z" fill="#1B1918"/>
<path d="M7.93516 11.6838H5.95137V13.6311H7.93516V11.6838Z" fill="#1B1918"/>
<path d="M9.91895 11.6838H7.93516V13.6311H9.91895V11.6838Z" fill="#1B1918"/>
<path d="M11.9027 11.6838H9.91895V13.6311H11.9027V11.6838Z" fill="#1B1918"/>
<path d="M13.8865 11.6838H11.9027V13.6311H13.8865V11.6838Z" fill="#1B1918"/>
<path d="M17.8541 11.6838H15.8703V13.6311H17.8541V11.6838Z" fill="#1B1918"/>
<path d="M21.8217 11.6838H19.8379V13.6311H21.8217V11.6838Z" fill="#1B1918"/>
<path d="M25.7893 11.6838H23.8055V13.6311H25.7893V11.6838Z" fill="#1B1918"/>
<path d="M29.7568 11.6838H27.7731V13.6311H29.7568V11.6838Z" fill="#1B1918"/>
<path d="M33.7244 11.6838H31.7406V13.6311H33.7244V11.6838Z" fill="#1B1918"/>
<path d="M37.692 11.6838H35.7082V13.6311H37.692V11.6838Z" fill="#1B1918"/>
<path d="M41.6596 11.6838H39.6758V13.6311H41.6596V11.6838Z" fill="#1B1918"/>
<path d="M45.6272 11.6838H43.6434V13.6311H45.6272V11.6838Z" fill="#1B1918"/>
<path d="M47.611 11.6838H45.6272V13.6311H47.611V11.6838Z" fill="#1B1918"/>
<path d="M49.5947 11.6838H47.611V13.6311H49.5947V11.6838Z" fill="#1B1918"/>
<path d="M51.5785 11.6838H49.5947V13.6311H51.5785V11.6838Z" fill="#1B1918"/>
<path d="M53.5623 11.6838H51.5785V13.6311H53.5623V11.6838Z" fill="#1B1918"/>
<path d="M55.5461 11.6838H53.5623V13.6311H55.5461V11.6838Z" fill="#1B1918"/>
<path d="M57.5299 11.6838H55.5461V13.6311H57.5299V11.6838Z" fill="#1B1918"/>
<path d="M19.8379 13.6311H17.8541V15.5784H19.8379V13.6311Z" fill="#1B1918"/>
<path d="M29.7568 13.6311H27.7731V15.5784H29.7568V13.6311Z" fill="#1B1918"/>
<path d="M31.7406 13.6311H29.7568V15.5784H31.7406V13.6311Z" fill="#1B1918"/>
<path d="M35.7082 13.6311H33.7244V15.5784H35.7082V13.6311Z" fill="#1B1918"/>
<path d="M39.6758 13.6311H37.692V15.5784H39.6758V13.6311Z" fill="#1B1918"/>
<path d="M7.93516 15.5784H5.95137V17.5257H7.93516V15.5784Z" fill="#1B1918"/>
<path d="M11.9027 15.5784H9.91895V17.5257H11.9027V15.5784Z" fill="#1B1918"/>
<path d="M13.8865 15.5784H11.9027V17.5257H13.8865V15.5784Z" fill="#1B1918"/>
<path d="M15.8703 15.5784H13.8865V17.5257H15.8703V15.5784Z" fill="#1B1918"/>
<path d="M27.7731 15.5784H25.7893V17.5257H27.7731V15.5784Z" fill="#1B1918"/>
<path d="M35.7082 15.5784H33.7244V17.5257H35.7082V15.5784Z" fill="#1B1918"/>
<path d="M43.6434 15.5784H41.6596V17.5257H43.6434V15.5784Z" fill="#1B1918"/>
<path d="M53.5623 15.5784H51.5785V17.5257H53.5623V15.5784Z" fill="#1B1918"/>
<path d="M55.5461 15.5784H53.5623V17.5257H55.5461V15.5784Z" fill="#1B1918"/>
<path d="M3.96758 17.5257H1.98379V19.473H3.96758V17.5257Z" fill="#1B1918"/>
<path d="M7.93516 17.5257H5.95137V19.473H7.93516V17.5257Z" fill="#1B1918"/>
<path d="M11.9027 17.5257H9.91895V19.473H11.9027V17.5257Z" fill="#1B1918"/>
<path d="M15.8703 17.5257H13.8865V19.473H15.8703V17.5257Z" fill="#1B1918"/>
<path d="M17.8541 17.5257H15.8703V19.473H17.8541V17.5257Z" fill="#1B1918"/>
<path d="M21.8217 17.5257H19.8379V19.473H21.8217V17.5257Z" fill="#1B1918"/>
<path d="M25.7893 17.5257H23.8055V19.473H25.7893V17.5257Z" fill="#1B1918"/>
<path d="M29.7568 17.5257H27.7731V19.473H29.7568V17.5257Z" fill="#1B1918"/>
<path d="M35.7082 17.5257H33.7244V19.473H35.7082V17.5257Z" fill="#1B1918"/>
<path d="M37.692 17.5257H35.7082V19.473H37.692V17.5257Z" fill="#1B1918"/>
<path d="M41.6596 17.5257H39.6758V19.473H41.6596V17.5257Z" fill="#1B1918"/>
<path d="M43.6434 17.5257H41.6596V19.473H43.6434V17.5257Z" fill="#1B1918"/>
<path d="M55.5461 17.5257H53.5623V19.473H55.5461V17.5257Z" fill="#1B1918"/>
<path d="M57.5299 17.5257H55.5461V19.473H57.5299V17.5257Z" fill="#1B1918"/>
<path d="M1.98379 19.473H0V21.4203H1.98379V19.473Z" fill="#1B1918"/>
<path d="M5.95137 19.473H3.96758V21.4203H5.95137V19.473Z" fill="#1B1918"/>
<path d="M9.91895 19.473H7.93516V21.4203H9.91895V19.473Z" fill="#1B1918"/>
<path d="M11.9027 19.473H9.91895V21.4203H11.9027V19.473Z" fill="#1B1918"/>
<path d="M13.8865 19.473H11.9027V21.4203H13.8865V19.473Z" fill="#1B1918"/>
<path d="M15.8703 19.473H13.8865V21.4203H15.8703V19.473Z" fill="#1B1918"/>
<path d="M25.7893 19.473H23.8055V21.4203H25.7893V19.473Z" fill="#1B1918"/>
<path d="M27.7731 19.473H25.7893V21.4203H27.7731V19.473Z" fill="#1B1918"/>
<path d="M29.7568 19.473H27.7731V21.4203H29.7568V19.473Z" fill="#1B1918"/>
<path d="M31.7406 19.473H29.7568V21.4203H31.7406V19.473Z" fill="#1B1918"/>
<path d="M35.7082 19.473H33.7244V21.4203H35.7082V19.473Z" fill="#1B1918"/>
<path d="M39.6758 19.473H37.692V21.4203H39.6758V19.473Z" fill="#1B1918"/>
<path d="M47.611 19.473H45.6272V21.4203H47.611V19.473Z" fill="#1B1918"/>
<path d="M49.5947 19.473H47.611V21.4203H49.5947V19.473Z" fill="#1B1918"/>
<path d="M51.5785 19.473H49.5947V21.4203H51.5785V19.473Z" fill="#1B1918"/>
<path d="M57.5299 19.473H55.5461V21.4203H57.5299V19.473Z" fill="#1B1918"/>
<path d="M7.93516 21.4203H5.95137V23.3676H7.93516V21.4203Z" fill="#1B1918"/>
<path d="M11.9027 21.4203H9.91895V23.3676H11.9027V21.4203Z" fill="#1B1918"/>
<path d="M15.8703 21.4203H13.8865V23.3676H15.8703V21.4203Z" fill="#1B1918"/>
<path d="M19.8379 21.4203H17.8541V23.3676H19.8379V21.4203Z" fill="#1B1918"/>
<path d="M23.8055 21.4203H21.8217V23.3676H23.8055V21.4203Z" fill="#1B1918"/>
<path d="M27.7731 21.4203H25.7893V23.3676H27.7731V21.4203Z" fill="#1B1918"/>
<path d="M33.7244 21.4203H31.7406V23.3676H33.7244V21.4203Z" fill="#1B1918"/>
<path d="M35.7082 21.4203H33.7244V23.3676H35.7082V21.4203Z" fill="#1B1918"/>
<path d="M41.6596 21.4203H39.6758V23.3676H41.6596V21.4203Z" fill="#1B1918"/>
<path d="M45.6272 21.4203H43.6434V23.3676H45.6272V21.4203Z" fill="#1B1918"/>
<path d="M49.5947 21.4203H47.611V23.3676H49.5947V21.4203Z" fill="#1B1918"/>
<path d="M55.5461 21.4203H53.5623V23.3676H55.5461V21.4203Z" fill="#1B1918"/>
<path d="M57.5299 21.4203H55.5461V23.3676H57.5299V21.4203Z" fill="#1B1918"/>
<path d="M11.9027 23.3676H9.91895V25.3149H11.9027V23.3676Z" fill="#1B1918"/>
<path d="M13.8865 23.3676H11.9027V25.3149H13.8865V23.3676Z" fill="#1B1918"/>
<path d="M17.8541 23.3676H15.8703V25.3149H17.8541V23.3676Z" fill="#1B1918"/>
<path d="M35.7082 23.3676H33.7244V25.3149H35.7082V23.3676Z" fill="#1B1918"/>
<path d="M39.6758 23.3676H37.692V25.3149H39.6758V23.3676Z" fill="#1B1918"/>
<path d="M41.6596 23.3676H39.6758V25.3149H41.6596V23.3676Z" fill="#1B1918"/>
<path d="M45.6272 23.3676H43.6434V25.3149H45.6272V23.3676Z" fill="#1B1918"/>
<path d="M51.5785 23.3676H49.5947V25.3149H51.5785V23.3676Z" fill="#1B1918"/>
<path d="M55.5461 23.3676H53.5623V25.3149H55.5461V23.3676Z" fill="#1B1918"/>
<path d="M57.5299 23.3676H55.5461V25.3149H57.5299V23.3676Z" fill="#1B1918"/>
<path d="M1.98379 25.3149H0V27.2622H1.98379V25.3149Z" fill="#1B1918"/>
<path d="M3.96758 25.3149H1.98379V27.2622H3.96758V25.3149Z" fill="#1B1918"/>
<path d="M11.9027 25.3149H9.91895V27.2622H11.9027V25.3149Z" fill="#1B1918"/>
<path d="M15.8703 25.3149H13.8865V27.2622H15.8703V25.3149Z" fill="#1B1918"/>
<path d="M19.8379 25.3149H17.8541V27.2622H19.8379V25.3149Z" fill="#1B1918"/>
<path d="M23.8055 25.3149H21.8217V27.2622H23.8055V25.3149Z" fill="#1B1918"/>
<path d="M25.7893 25.3149H23.8055V27.2622H25.7893V25.3149Z" fill="#1B1918"/>
<path d="M27.7731 25.3149H25.7893V27.2622H27.7731V25.3149Z" fill="#1B1918"/>
<path d="M29.7568 25.3149H27.7731V27.2622H29.7568V25.3149Z" fill="#1B1918"/>
<path d="M35.7082 25.3149H33.7244V27.2622H35.7082V25.3149Z" fill="#1B1918"/>
<path d="M39.6758 25.3149H37.692V27.2622H39.6758V25.3149Z" fill="#1B1918"/>
<path d="M41.6596 25.3149H39.6758V27.2622H41.6596V25.3149Z" fill="#1B1918"/>
<path d="M47.611 25.3149H45.6272V27.2622H47.611V25.3149Z" fill="#1B1918"/>
<path d="M49.5947 25.3149H47.611V27.2622H49.5947V25.3149Z" fill="#1B1918"/>
<path d="M51.5785 25.3149H49.5947V27.2622H51.5785V25.3149Z" fill="#1B1918"/>
<path d="M53.5623 25.3149H51.5785V27.2622H53.5623V25.3149Z" fill="#1B1918"/>
<path d="M55.5461 25.3149H53.5623V27.2622H55.5461V25.3149Z" fill="#1B1918"/>
<path d="M3.96758 27.2622H1.98379V29.2095H3.96758V27.2622Z" fill="#1B1918"/>
<path d="M9.91895 27.2622H7.93516V29.2095H9.91895V27.2622Z" fill="#1B1918"/>
<path d="M13.8865 27.2622H11.9027V29.2095H13.8865V27.2622Z" fill="#1B1918"/>
<path d="M15.8703 27.2622H13.8865V29.2095H15.8703V27.2622Z" fill="#1B1918"/>
<path d="M21.8217 27.2622H19.8379V29.2095H21.8217V27.2622Z" fill="#1B1918"/>
<path d="M29.7568 27.2622H27.7731V29.2095H29.7568V27.2622Z" fill="#1B1918"/>
<path d="M31.7406 27.2622H29.7568V29.2095H31.7406V27.2622Z" fill="#1B1918"/>
<path d="M33.7244 27.2622H31.7406V29.2095H33.7244V27.2622Z" fill="#1B1918"/>
<path d="M35.7082 27.2622H33.7244V29.2095H35.7082V27.2622Z" fill="#1B1918"/>
<path d="M47.611 27.2622H45.6272V29.2095H47.611V27.2622Z" fill="#1B1918"/>
<path d="M1.98379 29.2095H0V31.1568H1.98379V29.2095Z" fill="#1B1918"/>
<path d="M3.96758 29.2095H1.98379V31.1568H3.96758V29.2095Z" fill="#1B1918"/>
<path d="M5.95137 29.2095H3.96758V31.1568H5.95137V29.2095Z" fill="#1B1918"/>
<path d="M9.91895 29.2095H7.93516V31.1568H9.91895V29.2095Z" fill="#1B1918"/>
<path d="M11.9027 29.2095H9.91895V31.1568H11.9027V29.2095Z" fill="#1B1918"/>
<path d="M21.8217 29.2095H19.8379V31.1568H21.8217V29.2095Z" fill="#1B1918"/>
<path d="M23.8055 29.2095H21.8217V31.1568H23.8055V29.2095Z" fill="#1B1918"/>
<path d="M27.7731 29.2095H25.7893V31.1568H27.7731V29.2095Z" fill="#1B1918"/>
<path d="M31.7406 29.2095H29.7568V31.1568H31.7406V29.2095Z" fill="#1B1918"/>
<path d="M37.692 29.2095H35.7082V31.1568H37.692V29.2095Z" fill="#1B1918"/>
<path d="M41.6596 29.2095H39.6758V31.1568H41.6596V29.2095Z" fill="#1B1918"/>
<path d="M43.6434 29.2095H41.6596V31.1568H43.6434V29.2095Z" fill="#1B1918"/>
<path d="M45.6272 29.2095H43.6434V31.1568H45.6272V29.2095Z" fill="#1B1918"/>
<path d="M47.611 29.2095H45.6272V31.1568H47.611V29.2095Z" fill="#1B1918"/>
<path d="M55.5461 29.2095H53.5623V31.1568H55.5461V29.2095Z" fill="#1B1918"/>
<path d="M1.98379 31.1568H0V33.1041H1.98379V31.1568Z" fill="#1B1918"/>
<path d="M5.95137 31.1568H3.96758V33.1041H5.95137V31.1568Z" fill="#1B1918"/>
<path d="M7.93516 31.1568H5.95137V33.1041H7.93516V31.1568Z" fill="#1B1918"/>
<path d="M9.91895 31.1568H7.93516V33.1041H9.91895V31.1568Z" fill="#1B1918"/>
<path d="M13.8865 31.1568H11.9027V33.1041H13.8865V31.1568Z" fill="#1B1918"/>
<path d="M17.8541 31.1568H15.8703V33.1041H17.8541V31.1568Z" fill="#1B1918"/>
<path d="M23.8055 31.1568H21.8217V33.1041H23.8055V31.1568Z" fill="#1B1918"/>
<path d="M27.7731 31.1568H25.7893V33.1041H27.7731V31.1568Z" fill="#1B1918"/>
<path d="M41.6596 31.1568H39.6758V33.1041H41.6596V31.1568Z" fill="#1B1918"/>
<path d="M43.6434 31.1568H41.6596V33.1041H43.6434V31.1568Z" fill="#1B1918"/>
<path d="M49.5947 31.1568H47.611V33.1041H49.5947V31.1568Z" fill="#1B1918"/>
<path d="M51.5785 31.1568H49.5947V33.1041H51.5785V31.1568Z" fill="#1B1918"/>
<path d="M53.5623 31.1568H51.5785V33.1041H53.5623V31.1568Z" fill="#1B1918"/>
<path d="M55.5461 31.1568H53.5623V33.1041H55.5461V31.1568Z" fill="#1B1918"/>
<path d="M57.5299 31.1568H55.5461V33.1041H57.5299V31.1568Z" fill="#1B1918"/>
<path d="M3.96758 33.1041H1.98379V35.0514H3.96758V33.1041Z" fill="#1B1918"/>
<path d="M5.95137 33.1041H3.96758V35.0514H5.95137V33.1041Z" fill="#1B1918"/>
<path d="M7.93516 33.1041H5.95137V35.0514H7.93516V33.1041Z" fill="#1B1918"/>
<path d="M9.91895 33.1041H7.93516V35.0514H9.91895V33.1041Z" fill="#1B1918"/>
<path d="M17.8541 33.1041H15.8703V35.0514H17.8541V33.1041Z" fill="#1B1918"/>
<path d="M19.8379 33.1041H17.8541V35.0514H19.8379V33.1041Z" fill="#1B1918"/>
<path d="M21.8217 33.1041H19.8379V35.0514H21.8217V33.1041Z" fill="#1B1918"/>
<path d="M27.7731 33.1041H25.7893V35.0514H27.7731V33.1041Z" fill="#1B1918"/>
<path d="M31.7406 33.1041H29.7568V35.0514H31.7406V33.1041Z" fill="#1B1918"/>
<path d="M33.7244 33.1041H31.7406V35.0514H33.7244V33.1041Z" fill="#1B1918"/>
<path d="M35.7082 33.1041H33.7244V35.0514H35.7082V33.1041Z" fill="#1B1918"/>
<path d="M45.6272 33.1041H43.6434V35.0514H45.6272V33.1041Z" fill="#1B1918"/>
<path d="M49.5947 33.1041H47.611V35.0514H49.5947V33.1041Z" fill="#1B1918"/>
<path d="M1.98379 35.0514H0V36.9987H1.98379V35.0514Z" fill="#1B1918"/>
<path d="M3.96758 35.0514H1.98379V36.9987H3.96758V35.0514Z" fill="#1B1918"/>
<path d="M7.93516 35.0514H5.95137V36.9987H7.93516V35.0514Z" fill="#1B1918"/>
<path d="M9.91895 35.0514H7.93516V36.9987H9.91895V35.0514Z" fill="#1B1918"/>
<path d="M13.8865 35.0514H11.9027V36.9987H13.8865V35.0514Z" fill="#1B1918"/>
<path d="M15.8703 35.0514H13.8865V36.9987H15.8703V35.0514Z" fill="#1B1918"/>
<path d="M17.8541 35.0514H15.8703V36.9987H17.8541V35.0514Z" fill="#1B1918"/>
<path d="M19.8379 35.0514H17.8541V36.9987H19.8379V35.0514Z" fill="#1B1918"/>
<path d="M23.8055 35.0514H21.8217V36.9987H23.8055V35.0514Z" fill="#1B1918"/>
<path d="M25.7893 35.0514H23.8055V36.9987H25.7893V35.0514Z" fill="#1B1918"/>
<path d="M39.6758 35.0514H37.692V36.9987H39.6758V35.0514Z" fill="#1B1918"/>
<path d="M41.6596 35.0514H39.6758V36.9987H41.6596V35.0514Z" fill="#1B1918"/>
<path d="M43.6434 35.0514H41.6596V36.9987H43.6434V35.0514Z" fill="#1B1918"/>
<path d="M45.6272 35.0514H43.6434V36.9987H45.6272V35.0514Z" fill="#1B1918"/>
<path d="M47.611 35.0514H45.6272V36.9987H47.611V35.0514Z" fill="#1B1918"/>
<path d="M49.5947 35.0514H47.611V36.9987H49.5947V35.0514Z" fill="#1B1918"/>
<path d="M51.5785 35.0514H49.5947V36.9987H51.5785V35.0514Z" fill="#1B1918"/>
<path d="M53.5623 35.0514H51.5785V36.9987H53.5623V35.0514Z" fill="#1B1918"/>
<path d="M1.98379 36.9987H0V38.946H1.98379V36.9987Z" fill="#1B1918"/>
<path d="M3.96758 36.9987H1.98379V38.946H3.96758V36.9987Z" fill="#1B1918"/>
<path d="M7.93516 36.9987H5.95137V38.946H7.93516V36.9987Z" fill="#1B1918"/>
<path d="M15.8703 36.9987H13.8865V38.946H15.8703V36.9987Z" fill="#1B1918"/>
<path d="M17.8541 36.9987H15.8703V38.946H17.8541V36.9987Z" fill="#1B1918"/>
<path d="M21.8217 36.9987H19.8379V38.946H21.8217V36.9987Z" fill="#1B1918"/>
<path d="M25.7893 36.9987H23.8055V38.946H25.7893V36.9987Z" fill="#1B1918"/>
<path d="M27.7731 36.9987H25.7893V38.946H27.7731V36.9987Z" fill="#1B1918"/>
<path d="M29.7568 36.9987H27.7731V38.946H29.7568V36.9987Z" fill="#1B1918"/>
<path d="M31.7406 36.9987H29.7568V38.946H31.7406V36.9987Z" fill="#1B1918"/>
<path d="M39.6758 36.9987H37.692V38.946H39.6758V36.9987Z" fill="#1B1918"/>
<path d="M49.5947 36.9987H47.611V38.946H49.5947V36.9987Z" fill="#1B1918"/>
<path d="M51.5785 36.9987H49.5947V38.946H51.5785V36.9987Z" fill="#1B1918"/>
<path d="M57.5299 36.9987H55.5461V38.946H57.5299V36.9987Z" fill="#1B1918"/>
<path d="M11.9027 38.946H9.91895V40.8932H11.9027V38.946Z" fill="#1B1918"/>
<path d="M13.8865 38.946H11.9027V40.8932H13.8865V38.946Z" fill="#1B1918"/>
<path d="M25.7893 38.946H23.8055V40.8932H25.7893V38.946Z" fill="#1B1918"/>
<path d="M27.7731 38.946H25.7893V40.8932H27.7731V38.946Z" fill="#1B1918"/>
<path d="M29.7568 38.946H27.7731V40.8932H29.7568V38.946Z" fill="#1B1918"/>
<path d="M31.7406 38.946H29.7568V40.8932H31.7406V38.946Z" fill="#1B1918"/>
<path d="M33.7244 38.946H31.7406V40.8932H33.7244V38.946Z" fill="#1B1918"/>
<path d="M35.7082 38.946H33.7244V40.8932H35.7082V38.946Z" fill="#1B1918"/>
<path d="M37.692 38.946H35.7082V40.8932H37.692V38.946Z" fill="#1B1918"/>
<path d="M39.6758 38.946H37.692V40.8932H39.6758V38.946Z" fill="#1B1918"/>
<path d="M41.6596 38.946H39.6758V40.8932H41.6596V38.946Z" fill="#1B1918"/>
<path d="M43.6434 38.946H41.6596V40.8932H43.6434V38.946Z" fill="#1B1918"/>
<path d="M45.6272 38.946H43.6434V40.8932H45.6272V38.946Z" fill="#1B1918"/>
<path d="M47.611 38.946H45.6272V40.8932H47.611V38.946Z" fill="#1B1918"/>
<path d="M49.5947 38.946H47.611V40.8932H49.5947V38.946Z" fill="#1B1918"/>
<path d="M57.5299 38.946H55.5461V40.8932H57.5299V38.946Z" fill="#1B1918"/>
<path d="M21.8217 40.8932H19.8379V42.8405H21.8217V40.8932Z" fill="#1B1918"/>
<path d="M29.7568 40.8932H27.7731V42.8405H29.7568V40.8932Z" fill="#1B1918"/>
<path d="M31.7406 40.8932H29.7568V42.8405H31.7406V40.8932Z" fill="#1B1918"/>
<path d="M37.692 40.8932H35.7082V42.8405H37.692V40.8932Z" fill="#1B1918"/>
<path d="M39.6758 40.8932H37.692V42.8405H39.6758V40.8932Z" fill="#1B1918"/>
<path d="M41.6596 40.8932H39.6758V42.8405H41.6596V40.8932Z" fill="#1B1918"/>
<path d="M49.5947 40.8932H47.611V42.8405H49.5947V40.8932Z" fill="#1B1918"/>
<path d="M51.5785 40.8932H49.5947V42.8405H51.5785V40.8932Z" fill="#1B1918"/>
<path d="M53.5623 40.8932H51.5785V42.8405H53.5623V40.8932Z" fill="#1B1918"/>
<path d="M55.5461 40.8932H53.5623V42.8405H55.5461V40.8932Z" fill="#1B1918"/>
<path d="M1.98379 42.8405H0V44.7878H1.98379V42.8405Z" fill="#1B1918"/>
<path d="M3.96758 42.8405H1.98379V44.7878H3.96758V42.8405Z" fill="#1B1918"/>
<path d="M5.95137 42.8405H3.96758V44.7878H5.95137V42.8405Z" fill="#1B1918"/>
<path d="M7.93516 42.8405H5.95137V44.7878H7.93516V42.8405Z" fill="#1B1918"/>
<path d="M9.91895 42.8405H7.93516V44.7878H9.91895V42.8405Z" fill="#1B1918"/>
<path d="M11.9027 42.8405H9.91895V44.7878H11.9027V42.8405Z" fill="#1B1918"/>
<path d="M13.8865 42.8405H11.9027V44.7878H13.8865V42.8405Z" fill="#1B1918"/>
<path d="M17.8541 42.8405H15.8703V44.7878H17.8541V42.8405Z" fill="#1B1918"/>
<path d="M19.8379 42.8405H17.8541V44.7878H19.8379V42.8405Z" fill="#1B1918"/>
<path d="M21.8217 42.8405H19.8379V44.7878H21.8217V42.8405Z" fill="#1B1918"/>
<path d="M23.8055 42.8405H21.8217V44.7878H23.8055V42.8405Z" fill="#1B1918"/>
<path d="M25.7893 42.8405H23.8055V44.7878H25.7893V42.8405Z" fill="#1B1918"/>
<path d="M27.7731 42.8405H25.7893V44.7878H27.7731V42.8405Z" fill="#1B1918"/>
<path d="M33.7244 42.8405H31.7406V44.7878H33.7244V42.8405Z" fill="#1B1918"/>
<path d="M35.7082 42.8405H33.7244V44.7878H35.7082V42.8405Z" fill="#1B1918"/>
<path d="M37.692 42.8405H35.7082V44.7878H37.692V42.8405Z" fill="#1B1918"/>
<path d="M41.6596 42.8405H39.6758V44.7878H41.6596V42.8405Z" fill="#1B1918"/>
<path d="M45.6272 42.8405H43.6434V44.7878H45.6272V42.8405Z" fill="#1B1918"/>
<path d="M49.5947 42.8405H47.611V44.7878H49.5947V42.8405Z" fill="#1B1918"/>
<path d="M55.5461 42.8405H53.5623V44.7878H55.5461V42.8405Z" fill="#1B1918"/>
<path d="M1.98379 44.7878H0V46.7351H1.98379V44.7878Z" fill="#1B1918"/>
<path d="M13.8865 44.7878H11.9027V46.7351H13.8865V44.7878Z" fill="#1B1918"/>
<path d="M17.8541 44.7878H15.8703V46.7351H17.8541V44.7878Z" fill="#1B1918"/>
<path d="M19.8379 44.7878H17.8541V46.7351H19.8379V44.7878Z" fill="#1B1918"/>
<path d="M21.8217 44.7878H19.8379V46.7351H21.8217V44.7878Z" fill="#1B1918"/>
<path d="M23.8055 44.7878H21.8217V46.7351H23.8055V44.7878Z" fill="#1B1918"/>
<path d="M27.7731 44.7878H25.7893V46.7351H27.7731V44.7878Z" fill="#1B1918"/>
<path d="M33.7244 44.7878H31.7406V46.7351H33.7244V44.7878Z" fill="#1B1918"/>
<path d="M35.7082 44.7878H33.7244V46.7351H35.7082V44.7878Z" fill="#1B1918"/>
<path d="M39.6758 44.7878H37.692V46.7351H39.6758V44.7878Z" fill="#1B1918"/>
<path d="M41.6596 44.7878H39.6758V46.7351H41.6596V44.7878Z" fill="#1B1918"/>
<path d="M49.5947 44.7878H47.611V46.7351H49.5947V44.7878Z" fill="#1B1918"/>
<path d="M1.98379 46.7351H0V48.6824H1.98379V46.7351Z" fill="#1B1918"/>
<path d="M5.95137 46.7351H3.96758V48.6824H5.95137V46.7351Z" fill="#1B1918"/>
<path d="M7.93516 46.7351H5.95137V48.6824H7.93516V46.7351Z" fill="#1B1918"/>
<path d="M9.91895 46.7351H7.93516V48.6824H9.91895V46.7351Z" fill="#1B1918"/>
<path d="M13.8865 46.7351H11.9027V48.6824H13.8865V46.7351Z" fill="#1B1918"/>
<path d="M21.8217 46.7351H19.8379V48.6824H21.8217V46.7351Z" fill="#1B1918"/>
<path d="M29.7568 46.7351H27.7731V48.6824H29.7568V46.7351Z" fill="#1B1918"/>
<path d="M37.692 46.7351H35.7082V48.6824H37.692V46.7351Z" fill="#1B1918"/>
<path d="M41.6596 46.7351H39.6758V48.6824H41.6596V46.7351Z" fill="#1B1918"/>
<path d="M43.6434 46.7351H41.6596V48.6824H43.6434V46.7351Z" fill="#1B1918"/>
<path d="M45.6272 46.7351H43.6434V48.6824H45.6272V46.7351Z" fill="#1B1918"/>
<path d="M47.611 46.7351H45.6272V48.6824H47.611V46.7351Z" fill="#1B1918"/>
<path d="M49.5947 46.7351H47.611V48.6824H49.5947V46.7351Z" fill="#1B1918"/>
<path d="M51.5785 46.7351H49.5947V48.6824H51.5785V46.7351Z" fill="#1B1918"/>
<path d="M53.5623 46.7351H51.5785V48.6824H53.5623V46.7351Z" fill="#1B1918"/>
<path d="M57.5299 46.7351H55.5461V48.6824H57.5299V46.7351Z" fill="#1B1918"/>
<path d="M1.98379 48.6824H0V50.6297H1.98379V48.6824Z" fill="#1B1918"/>
<path d="M5.95137 48.6824H3.96758V50.6297H5.95137V48.6824Z" fill="#1B1918"/>
<path d="M7.93516 48.6824H5.95137V50.6297H7.93516V48.6824Z" fill="#1B1918"/>
<path d="M9.91895 48.6824H7.93516V50.6297H9.91895V48.6824Z" fill="#1B1918"/>
<path d="M13.8865 48.6824H11.9027V50.6297H13.8865V48.6824Z" fill="#1B1918"/>
<path d="M17.8541 48.6824H15.8703V50.6297H17.8541V48.6824Z" fill="#1B1918"/>
<path d="M19.8379 48.6824H17.8541V50.6297H19.8379V48.6824Z" fill="#1B1918"/>
<path d="M23.8055 48.6824H21.8217V50.6297H23.8055V48.6824Z" fill="#1B1918"/>
<path d="M27.7731 48.6824H25.7893V50.6297H27.7731V48.6824Z" fill="#1B1918"/>
<path d="M29.7568 48.6824H27.7731V50.6297H29.7568V48.6824Z" fill="#1B1918"/>
<path d="M31.7406 48.6824H29.7568V50.6297H31.7406V48.6824Z" fill="#1B1918"/>
<path d="M39.6758 48.6824H37.692V50.6297H39.6758V48.6824Z" fill="#1B1918"/>
<path d="M47.611 48.6824H45.6272V50.6297H47.611V48.6824Z" fill="#1B1918"/>
<path d="M51.5785 48.6824H49.5947V50.6297H51.5785V48.6824Z" fill="#1B1918"/>
<path d="M53.5623 48.6824H51.5785V50.6297H53.5623V48.6824Z" fill="#1B1918"/>
<path d="M55.5461 48.6824H53.5623V50.6297H55.5461V48.6824Z" fill="#1B1918"/>
<path d="M1.98379 50.6297H0V52.577H1.98379V50.6297Z" fill="#1B1918"/>
<path d="M5.95137 50.6297H3.96758V52.577H5.95137V50.6297Z" fill="#1B1918"/>
<path d="M7.93516 50.6297H5.95137V52.577H7.93516V50.6297Z" fill="#1B1918"/>
<path d="M9.91895 50.6297H7.93516V52.577H9.91895V50.6297Z" fill="#1B1918"/>
<path d="M13.8865 50.6297H11.9027V52.577H13.8865V50.6297Z" fill="#1B1918"/>
<path d="M19.8379 50.6297H17.8541V52.577H19.8379V50.6297Z" fill="#1B1918"/>
<path d="M27.7731 50.6297H25.7893V52.577H27.7731V50.6297Z" fill="#1B1918"/>
<path d="M53.5623 50.6297H51.5785V52.577H53.5623V50.6297Z" fill="#1B1918"/>
<path d="M1.98379 52.577H0V54.5243H1.98379V52.577Z" fill="#1B1918"/>
<path d="M13.8865 52.577H11.9027V54.5243H13.8865V52.577Z" fill="#1B1918"/>
<path d="M23.8055 52.577H21.8217V54.5243H23.8055V52.577Z" fill="#1B1918"/>
<path d="M25.7893 52.577H23.8055V54.5243H25.7893V52.577Z" fill="#1B1918"/>
<path d="M27.7731 52.577H25.7893V54.5243H27.7731V52.577Z" fill="#1B1918"/>
<path d="M31.7406 52.577H29.7568V54.5243H31.7406V52.577Z" fill="#1B1918"/>
<path d="M33.7244 52.577H31.7406V54.5243H33.7244V52.577Z" fill="#1B1918"/>
<path d="M41.6596 52.577H39.6758V54.5243H41.6596V52.577Z" fill="#1B1918"/>
<path d="M47.611 52.577H45.6272V54.5243H47.611V52.577Z" fill="#1B1918"/>
<path d="M51.5785 52.577H49.5947V54.5243H51.5785V52.577Z" fill="#1B1918"/>
<path d="M53.5623 52.577H51.5785V54.5243H53.5623V52.577Z" fill="#1B1918"/>
<path d="M1.98379 54.5243H0V56.4716H1.98379V54.5243Z" fill="#1B1918"/>
<path d="M3.96758 54.5243H1.98379V56.4716H3.96758V54.5243Z" fill="#1B1918"/>
<path d="M5.95137 54.5243H3.96758V56.4716H5.95137V54.5243Z" fill="#1B1918"/>
<path d="M7.93516 54.5243H5.95137V56.4716H7.93516V54.5243Z" fill="#1B1918"/>
<path d="M9.91895 54.5243H7.93516V56.4716H9.91895V54.5243Z" fill="#1B1918"/>
<path d="M11.9027 54.5243H9.91895V56.4716H11.9027V54.5243Z" fill="#1B1918"/>
<path d="M13.8865 54.5243H11.9027V56.4716H13.8865V54.5243Z" fill="#1B1918"/>
<path d="M19.8379 54.5243H17.8541V56.4716H19.8379V54.5243Z" fill="#1B1918"/>
<path d="M21.8217 54.5243H19.8379V56.4716H21.8217V54.5243Z" fill="#1B1918"/>
<path d="M29.7568 54.5243H27.7731V56.4716H29.7568V54.5243Z" fill="#1B1918"/>
<path d="M33.7244 54.5243H31.7406V56.4716H33.7244V54.5243Z" fill="#1B1918"/>
<path d="M35.7082 54.5243H33.7244V56.4716H35.7082V54.5243Z" fill="#1B1918"/>
<path d="M37.692 54.5243H35.7082V56.4716H37.692V54.5243Z" fill="#1B1918"/>
<path d="M43.6434 54.5243H41.6596V56.4716H43.6434V54.5243Z" fill="#1B1918"/>
<path d="M45.6272 54.5243H43.6434V56.4716H45.6272V54.5243Z" fill="#1B1918"/>
<path d="M49.5947 54.5243H47.611V56.4716H49.5947V54.5243Z" fill="#1B1918"/>
<path d="M53.5623 54.5243H51.5785V56.4716H53.5623V54.5243Z" fill="#1B1918"/>
<path d="M57.5299 54.5243H55.5461V56.4716H57.5299V54.5243Z" fill="#1B1918"/>
</svg>
